<?xml version="1.0" encoding="utf-8"?>
<!-- Generator: Adobe Illustrator 19.2.1, SVG Export Plug-In . SVG Version: 6.00 Build 0)  -->
<svg version="1.1" id="Layer_1" xmlns="http://www.w3.org/2000/svg" xmlns:xlink="http://www.w3.org/1999/xlink" x="0px" y="0px"
	 viewBox="0 0 145.5 49.5" style="enable-background:new 0 0 145.5 49.5;" xml:space="preserve">
<style type="text/css">
	.st0{fill:url(#SVGID_1_);}
	.st1{fill:url(#SVGID_2_);}
	.st2{fill:url(#SVGID_3_);}
</style>
<g>
	<linearGradient id="SVGID_1_" gradientUnits="userSpaceOnUse" x1="2.6434" y1="45.7205" x2="141.8992" y2="1.7237">
		<stop  offset="0" style="stop-color:#D40058"/>
		<stop  offset="0.4787" style="stop-color:#8115FF"/>
		<stop  offset="1" style="stop-color:#94FDFF"/>
	</linearGradient>
	<polygon class="st0" points="103.4,19.3 87.1,35.6 56.5,5 46.1,5 87.1,46 108.7,24.4 	"/>
	<linearGradient id="SVGID_2_" gradientUnits="userSpaceOnUse" x1="2.3845" y1="44.9009" x2="141.6403" y2="0.9042">
		<stop  offset="0" style="stop-color:#D40058"/>
		<stop  offset="0.4787" style="stop-color:#8115FF"/>
		<stop  offset="1" style="stop-color:#94FDFF"/>
	</linearGradient>
	<polygon class="st1" points="2.3,46 12.7,46 21.6,37.1 61.7,37.1 54.5,29.7 29,29.7 43.3,15.4 73.8,46 84.2,46 43.3,5 	"/>
	<linearGradient id="SVGID_3_" gradientUnits="userSpaceOnUse" x1="6.8041" y1="58.8895" x2="146.0598" y2="14.8928">
		<stop  offset="0" style="stop-color:#D40058"/>
		<stop  offset="0.4787" style="stop-color:#8115FF"/>
		<stop  offset="1" style="stop-color:#94FDFF"/>
	</linearGradient>
	<path class="st2" d="M142,3H89.4L111,24.5L89.4,46H142l-21.5-21.5L142,3z M105.4,9.4H126l-10.3,10.3L105.4,9.4z M126,39.5h-20.6
		l10.3-10.3L126,39.5z"/>
</g>
</svg>
